<svg class="svg-icon" style="width: 1em;height: 1em;vertical-align: middle;fill: currentColor;overflow: hidden;" viewBox="0 0 1024 1024" version="1.1" xmlns="http://www.w3.org/2000/svg"><path d="M480 431.36H768v64.64H480zM480 560H768v64.64H480zM96 719.36V192.64c0-53.12 42.88-96.64 96-96.64h416c53.12 0 96 43.52 96 96.64v32h-64v-32c0-17.92-14.08-32-32-32H192c-17.92 0-32 14.72-32 32v389.12l62.72-52.48 40.96 49.28-167.68 140.8z" fill="#C36DB4" /><path d="M928 928l-202.88-154.88H416c-53.12 0-96-43.52-96-96.64V385.92c0-53.12 42.88-96.64 96-96.64H832c53.12 0 96 43.52 96 96.64v542.08z m-512-574.08c-17.92 0-32 14.08-32 32v289.92c0 17.92 14.08 32 32 32h330.88l117.12 89.6V385.92c0-17.92-14.08-32-32-32H416z" fill="#C36DB4" /></svg>