<?xml version="1.0" encoding="iso-8859-1"?><!-- Generator: Adobe Illustrator 22.1.0, SVG Export Plug-In . SVG Version: 6.00 Build 0)  --><svg xmlns="http://www.w3.org/2000/svg" xmlns:xlink="http://www.w3.org/1999/xlink" viewBox="0 0 50 50" width="50px" height="50px"><path style="fill:none;stroke:#000000;stroke-width:2;stroke-miterlimit:10;" d="M45,40.5l-20,6l-20-6V9c0-2.761,2.239-5,5-5h30c2.761,0,5,2.239,5,5V40.5z"/><g><rect x="28" y="8" width="3" height="23"/><path d="M42,15v-4c0-1.657-1.343-3-3-3h-3c-1.657,0-3,1.343-3,3v17c0,1.657,1.343,3,3,3h3c1.657,0,3-1.343,3-3v-4h-3v4h-3V11h3v4H42z"/><path d="M17,8v23h3V21h3c1.657,0,3-1.343,3-3v-7c0-1.657-1.343-3-3-3H17z M20,18v-7h3v7H20z"/><path d="M8,11v17c0,1.657,1.343,3,3,3h4v-3h-4v-7h3v-3h-3v-7h4V8h-4C9.343,8,8,9.343,8,11z"/></g><g><path d="M8,34v4c0,0.552,0.448,1,1,1h4c0.552,0,1-0.448,1-1v-2h-2v1h1v0.75c0,0.138-0.112,0.25-0.25,0.25h-3.5C9.112,38,9,37.888,9,37.75v-3.5C9,34.112,9.112,34,9.25,34h3.5c0.138,0,0.25,0.112,0.25,0.25V35h1v-1c0-0.552-0.448-1-1-1H9C8.448,33,8,33.448,8,34z"/><path d="M37,33c-0.552,0-1,0.448-1,1v1.5c0,0.552,0.448,1,1,1h3.75c0.138,0,0.25,0.112,0.25,0.25v1c0,0.138-0.112,0.25-0.25,0.25h-3.5C37.112,38,37,37.888,37,37.75V37.5h-1V38c0,0.552,0.448,1,1,1h4c0.552,0,1-0.448,1-1v-1.5c0-0.552-0.448-1-1-1h-3.75c-0.138,0-0.25-0.112-0.25-0.25v-1c0-0.138,0.112-0.25,0.25-0.25h3.5c0.138,0,0.25,0.112,0.25,0.25v0.25h1V34c0-0.552-0.448-1-1-1H37z"/><polygon points="26,37 24,33 23,33 23,39 24,39 24,35 25.5,38 26.5,38 28,35 28,39 29,39 29,33 28,33 "/><polygon points="30,33 30,34 30,38 30,39 31,39 35,39 35,38 31,38 31,36.5 33,36.5 33,35.5 31,35.5 31,34 35,34 35,33 31,33 "/><path d="M19,33h-1l-3,6h1l0.5-1h4l0.5,1h1L19,33z M17,37l1.5-3l1.5,3H17z"/></g></svg>