<svg class="svg-icon" style="width: 1em; height: 1em;vertical-align: middle;fill: currentColor;overflow: hidden;" viewBox="0 0 1024 1024" version="1.1" xmlns="http://www.w3.org/2000/svg"><path d="M883.2 610.133333c-4.266667 0-12.8 0-17.066667-4.266666-8.533333-8.533333-8.533333-21.333333 0-29.866667 8.533333-8.533333 17.066667-25.6 17.066667-42.666667s-4.266667-34.133333-17.066667-42.666666l-320-375.466667c-21.333333-21.333333-59.733333-21.333333-81.066666 0L128 490.666667c-12.8 12.8-17.066667 25.6-17.066667 42.666666s4.266667 34.133333 17.066667 42.666667c8.533333 8.533333 8.533333 21.333333 0 29.866667s-21.333333 8.533333-29.866667 0c-17.066667-17.066667-29.866667-42.666667-29.866666-72.533334s8.533333-55.466667 29.866666-72.533333L435.2 85.333333c38.4-38.4 102.4-38.4 140.8 0l320 375.466667c17.066667 17.066667 25.6 42.666667 25.6 72.533333s-8.533333 55.466667-29.866667 72.533334c4.266667 4.266667-4.266667 4.266667-8.533333 4.266666zM401.066667 998.4c-12.8 0-21.333333-8.533333-21.333334-21.333333v-273.066667c0-51.2 38.4-89.6 89.6-89.6h76.8c51.2 0 89.6 38.4 89.6 89.6v209.066667c0 12.8-8.533333 21.333333-21.333333 21.333333s-21.333333-8.533333-21.333333-21.333333v-209.066667c0-25.6-21.333333-46.933333-46.933334-46.933333H469.333333c-25.6 0-46.933333 21.333333-46.933333 46.933333v273.066667c0 12.8-8.533333 21.333333-21.333333 21.333333z" fill="#7162AD" /><path d="M768 806.4c-12.8 0-21.333333-8.533333-21.333333-21.333333v-217.6h136.533333c12.8 0 21.333333 8.533333 21.333333 21.333333s-8.533333 21.333333-21.333333 21.333333h-93.866667v174.933334c0 12.8-8.533333 21.333333-21.333333 21.333333zM238.933333 913.066667c-12.8 0-21.333333-8.533333-21.333333-21.333334v-281.6H123.733333c-12.8 0-21.333333-8.533333-21.333333-21.333333s8.533333-21.333333 21.333333-21.333333h136.533334v324.266666c0 12.8-8.533333 21.333333-21.333334 21.333334z" fill="#7162AD" /><path d="M401.066667 998.4H324.266667c-59.733333 0-106.666667-46.933333-106.666667-106.666667v-42.666666c0-12.8 8.533333-21.333333 21.333333-21.333334s21.333333 8.533333 21.333334 21.333334v42.666666c0 34.133333 29.866667 64 64 64h76.8c12.8 0 21.333333 8.533333 21.333333 21.333334s-8.533333 21.333333-21.333333 21.333333z" fill="#7162AD" /><path d="M682.666667 998.4h-68.266667c-12.8 0-21.333333-8.533333-21.333333-21.333333s8.533333-21.333333 21.333333-21.333334H682.666667c34.133333 0 64-29.866667 64-64v-42.666666c0-12.8 8.533333-21.333333 21.333333-21.333334s21.333333 8.533333 21.333333 21.333334v42.666666c0 59.733333-46.933333 106.666667-106.666666 106.666667z" fill="#A495FC" /></svg>