<svg class="svg-icon" style="width: 1em;height: 1em;vertical-align: middle;fill: currentColor;overflow: hidden;" viewBox="0 0 1024 1024" version="1.1" xmlns="http://www.w3.org/2000/svg"><path d="M430.738984 665.6h159.939047v274.529524H430.738984z m446.659047-83.382857a40.96 40.96 0 0 0-40.96 40.96v316.464762h-163.352381v-274.041905A82.407619 82.407619 0 0 0 590.678031 585.142857H430.738984a82.407619 82.407619 0 0 0-82.407619 80.457143v274.529524H184.978984v-316.464762a40.96 40.96 0 0 0-82.407619 0v316.464762A82.407619 82.407619 0 0 0 184.978984 1024h651.459047a82.407619 82.407619 0 0 0 82.407619-82.407619v-317.927619a40.96 40.96 0 0 0-40.96-41.447619zM991.988507 430.567619L565.80946 21.455238A81.92 81.92 0 0 0 455.607555 21.455238L30.403746 430.567619a40.96 40.96 0 1 0 55.100952 60.952381l425.203809-409.112381 425.20381 409.112381A40.96 40.96 0 1 0 991.988507 430.567619z" fill="#5E5C5C" /></svg>